<?xml version="1.0" encoding="utf-8"?>
<!-- Generator: Adobe Illustrator 14.0.0, SVG Export Plug-In . SVG Version: 6.00 Build 43363)  -->
<!DOCTYPE svg PUBLIC "-//W3C//DTD SVG 1.1//EN" "http://www.w3.org/Graphics/SVG/1.1/DTD/svg11.dtd">
<svg version="1.1" id="Layer_1" xmlns="http://www.w3.org/2000/svg" xmlns:xlink="http://www.w3.org/1999/xlink" x="0px" y="0px"
	 width="800px" height="600px" viewBox="0 0 800 600" enable-background="new 0 0 800 600" xml:space="preserve">
<path fill="#FFFFFF" stroke="#000000" d="M485.075,103.03c91.29,11.453,167.511,71.354,202.106,153.147
	c12.852,30.39,83.461,67.327,83.461,102.398c0,37.757-71.741,70.062-86.515,102.269c-20.821,45.389-54.63,83.583-96.666,109.824
	c-38.968,24.327-85.006-2.188-134.325-2.186c-39.163,0-76.256,31.707-109.383,15.877c-51.465-24.593-93.357-66-118.562-117.111
	c-16.687-33.836-191.87-71.924-191.87-112.201c0.001-43.383,176.685-84.226,195.859-119.95
	c37.474-69.821,106.645-120.093,188.268-131.569C429.108,101.89,439.26,2.262,451.373,2.262
	C462.19,2.262,474.613,101.718,485.075,103.03z"/>
</svg>
